<?xml version="1.0" encoding="UTF-8" standalone="no"?>
<!-- Created with Inkscape (http://www.inkscape.org/) -->

<svg
   xmlns:dc="http://purl.org/dc/elements/1.1/"
   xmlns:cc="http://creativecommons.org/ns#"
   xmlns:rdf="http://www.w3.org/1999/02/22-rdf-syntax-ns#"
   xmlns:svg="http://www.w3.org/2000/svg"
   xmlns="http://www.w3.org/2000/svg"
   xmlns:xlink="http://www.w3.org/1999/xlink"
   xmlns:sodipodi="http://sodipodi.sourceforge.net/DTD/sodipodi-0.dtd"
   xmlns:inkscape="http://www.inkscape.org/namespaces/inkscape"
   width="65mm"
   height="65mm"
   viewBox="0 0 65 65"
   version="1.1"
   id="svg8"
   inkscape:version="0.92.4 (5da689c313, 2019-01-14)"
   sodipodi:docname="logo_separate.svg">
  <metadata
     id="metadata16">
    <rdf:RDF>
      <cc:Work
         rdf:about="">
        <dc:format>image/svg+xml</dc:format>
        <dc:type
           rdf:resource="http://purl.org/dc/dcmitype/StillImage" />
        <dc:title></dc:title>
      </cc:Work>
    </rdf:RDF>
  </metadata>
  <defs
     id="defs2">
    <linearGradient
       inkscape:collect="always"
       id="linearGradient6781">
      <stop
         style="stop-color:#2f2fcb;stop-opacity:1"
         offset="0"
         id="stop6777" />
      <stop
         style="stop-color:#94caff;stop-opacity:1"
         offset="1"
         id="stop6779" />
    </linearGradient>
    <inkscape:path-effect
       effect="bspline"
       id="path-effect5163"
       is_visible="true"
       weight="33.333333"
       steps="2"
       helper_size="0"
       apply_no_weight="true"
       apply_with_weight="true"
       only_selected="false" />
    <linearGradient
       inkscape:collect="always"
       xlink:href="#linearGradient6781"
       id="linearGradient6785"
       gradientUnits="userSpaceOnUse"
       x1="-1.671734"
       y1="1.4717439"
       x2="-1.4510763"
       y2="66.51532"
       gradientTransform="translate(-20.0727,202.46386)" />
  </defs>
  <sodipodi:namedview
     id="base"
     pagecolor="#ffffff"
     bordercolor="#666666"
     borderopacity="1.0"
     inkscape:pageopacity="0.0"
     inkscape:pageshadow="2"
     inkscape:zoom="5.656854"
     inkscape:cx="-126.27174"
     inkscape:cy="50.206677"
     inkscape:document-units="mm"
     inkscape:current-layer="svg8"
     showgrid="false"
     inkscape:window-width="2400"
     inkscape:window-height="1271"
     inkscape:window-x="2391"
     inkscape:window-y="-9"
     inkscape:window-maximized="1" />
  <!-- <metadata
     id="metadata5">
    <rdf:RDF>
      <cc:Work
         rdf:about="">
        <dc:format>image/svg+xml</dc:format>
        <dc:type
           rdf:resource="http://purl.org/dc/dcmitype/StillImage" />
        <dc:title></dc:title>
      </cc:Work>
    </rdf:RDF>
  </metadata> -->
  <circle
     style="opacity:1;fill:#aff8f9;fill-opacity:1;fill-rule:nonzero;stroke:#ffffff;stroke-width:0.33970743;stroke-miterlimit:4;stroke-dasharray:none;stroke-opacity:1"
     id="path827"
     cx="33.1581"
     cy="32.216076"
     r="29.830147" />
  <rect
     style="opacity:1;fill:#000080;fill-opacity:1;fill-rule:nonzero;stroke:#000080;stroke-width:0.33072916;stroke-miterlimit:4;stroke-dasharray:none;stroke-opacity:1"
     id="rect829"
     width="9.635067"
     height="43.591663"
     x="-63.040817"
     y="32.767094" />
  <path
     style="opacity:1;vector-effect:none;fill:#000080;fill-opacity:1;stroke:#000080;stroke-width:0.02911687;stroke-linecap:butt;stroke-linejoin:miter;stroke-miterlimit:4;stroke-dasharray:none;stroke-dashoffset:0;stroke-opacity:1"
     d="m -62.580098,32.60196 -3.877636,0.0041 3.897982,3.468707 z"
     id="path839"
     inkscape:connector-curvature="0" />
  <path
     style="opacity:1;vector-effect:none;fill:#000080;fill-opacity:1;stroke:#000080;stroke-width:0.02911687;stroke-linecap:butt;stroke-linejoin:miter;stroke-miterlimit:4;stroke-dasharray:none;stroke-dashoffset:0;stroke-opacity:1"
     d="m -62.834111,76.507585 -3.877636,-0.0041 3.897982,-3.468707 z"
     id="path839-1"
     inkscape:connector-curvature="0" />
  <circle
     style="opacity:1;fill:#000080;fill-opacity:1;fill-rule:nonzero;stroke:#000080;stroke-width:0.32398629;stroke-miterlimit:4;stroke-dasharray:none;stroke-opacity:1"
     id="path856"
     cx="41.036533"
     cy="47.519527"
     r="14.838007" />
  <g
     id="layer1"
     transform="matrix(1.1764709,0,0,1.1628265,4.3899301,-184.20184)"
     style="fill:#aff8f9;fill-opacity:1">
    <g
       id="g5201"
       transform="translate(75.935416,17.197916)"
       style="fill:#aff8f9;fill-opacity:1">
      <g
         id="g5215"
         transform="translate(-21.695833,10.847917)"
         style="fill:#aff8f9;fill-opacity:1">
        <path
           style="fill:#aff8f9;fill-opacity:1;stroke:none;stroke-width:0;stroke-miterlimit:4;stroke-dasharray:none;stroke-opacity:1"
           d="m -75.255928,208.76188 c -4.692771,0 -8.499739,3.85614 -8.499739,8.59999 0,4.74385 3.806968,8.59948 8.499739,8.59948 4.692775,0 8.500256,-3.85563 8.500256,-8.59948 0,-4.74385 -3.807481,-8.59999 -8.500256,-8.59999 z m 0.237712,0.71107 c 0.636466,0.0214 1.081951,0.13405 1.653128,0.41755 0.791051,0.39264 1.420765,1.03607 1.802992,1.84226 0.571564,1.20551 0.492938,2.61821 -0.20929,3.76049 -0.291577,0.4743 -0.780672,0.96817 -1.257806,1.27021 -0.596749,0.37774 -1.36027,0.60227 -2.05827,0.60513 -1.358916,0.006 -2.581325,0.66092 -3.298508,1.76889 -0.465918,0.7198 -0.685419,1.58498 -0.611849,2.40967 0.03454,0.38703 0.07608,0.58958 0.193271,0.94258 0.43989,1.32484 1.563494,2.29889 2.962092,2.56831 0.323853,0.0624 0.345382,0.0692 0.328663,0.0961 -0.01301,0.021 -0.336915,0.0256 -0.458888,0.006 -0.03245,-0.005 -0.175543,-0.0258 -0.318326,-0.0455 -1.322702,-0.18256 -2.661661,-0.76543 -3.764629,-1.63918 -0.318542,-0.25235 -0.972764,-0.90634 -1.225248,-1.22473 -0.363969,-0.45896 -0.754391,-1.08268 -0.975133,-1.55701 -0.7903,-1.69813 -0.9608,-3.5637 -0.49041,-5.36918 0.271303,-1.04133 0.768881,-2.02932 1.465027,-2.90938 0.249565,-0.3155 0.904274,-0.96982 1.225764,-1.22474 0.295587,-0.2344 0.822412,-0.58662 1.133266,-0.75809 1.177787,-0.64961 2.614604,-1.00301 3.904154,-0.95963 z m -7.895642,9.73842 c 0.163801,0.68571 0.417795,1.34979 0.761193,1.96991 0.190836,0.34463 0.53694,0.85959 0.790133,1.17615 0.267242,0.33413 0.869466,0.93489 1.201478,1.19942 1.360554,1.08394 2.939037,1.68166 4.672581,1.76836 0.120396,0.006 0.203542,0.007 0.291973,0.008 -0.0199,1.5e-4 -0.03949,0.002 -0.05943,0.002 -3.720777,0 -6.834915,-2.60949 -7.65793,-6.12366 z"
           id="path6645"
           inkscape:connector-curvature="0" />
      </g>
    </g>
  </g>
</svg>
